PathFileType	4	(X/Y/Z)	c:/Users/goper/Files/vsCode/490R/osim_files/C10/C10_Fast_02.trc
DataRate	CameraRate	NumFrames	NumMarkers	Units                	OrigDataRate	OrigDataStartFrame	OrigNumFrames
250.00	250.00	9	36	mm	250.0	866	2307
                Frame#	Time	LPSIS			LASIS			LTH1			LTH2			LTH3			LTH4			LLFE			LMFE			LSH1			LSH2			LSH3			LSH4			LLMAL			LMMAL			LCAL			LMTP5			LTOE			LMTP1			RPSIS			RASIS			RTH1			RTH2			RTH3			RTH4			RLFE			RMFE			RSH1			RSH2			RSH3			RSH4			RLMAL			RMMAL			RCAL			RMTP1			RTOE			RMTP5		
		X1	Y1	Z1	X2	Y2	Z2	X3	Y3	Z3	X4	Y4	Z4	X5	Y5	Z5	X6	Y6	Z6	X7	Y7	Z7	X8	Y8	Z8	X9	Y9	Z9	X10	Y10	Z10	X11	Y11	Z11	X12	Y12	Z12	X13	Y13	Z13	X14	Y14	Z14	X15	Y15	Z15	X16	Y16	Z16	X17	Y17	Z17	X18	Y18	Z18	X19	Y19	Z19	X20	Y20	Z20	X21	Y21	Z21	X22	Y22	Z22	X23	Y23	Z23	X24	Y24	Z24	X25	Y25	Z25	X26	Y26	Z26	X27	Y27	Z27	X28	Y28	Z28	X29	Y29	Z29	X30	Y30	Z30	X31	Y31	Z31	X32	Y32	Z32	X33	Y33	Z33	X34	Y34	Z34	X35	Y35	Z35	X36	Y36	Z36

866	3.46000	133.00681	1023.89264	262.88574	-19.87754	1012.20013	392.44492	-32.57808	777.38684	433.24652	-56.88968	736.39569	429.40387	-84.90398	802.27368	413.44199	-99.96707	757.25610	410.29727	0.00000	0.00000	0.00000	-175.36183	514.36395	241.20593	-101.26806	448.01547	366.58017	-88.56744	401.91266	371.30344	-158.21097	425.13821	357.42053	-136.81929	383.99799	356.79654	-6.11505	144.51494	328.18964	0.00000	0.00000	0.00000	68.49837	107.45834	278.18820	-91.26040	63.48387	358.10904	-153.66815	67.79637	302.11279	-116.79708	42.02286	257.82651	127.26477	1029.84912	181.13280	-30.99743	1011.84906	61.36895	53.43634	749.81036	19.08506	42.86233	702.79529	23.43274	-7.29892	754.36749	20.76824	-8.44901	710.40857	22.67592	29.49316	483.58081	89.42855	27.84619	479.70544	201.73837	106.96112	397.23886	73.50450	106.13211	353.17245	73.99136	44.82563	390.78091	84.90026	54.19606	348.85834	82.12379	114.20539	89.66354	127.26515	113.33241	67.58915	216.89301	180.44534	48.30210	160.13246	-15.64659	31.16113	202.79692	-48.19303	47.52418	172.83717	-2.22208	30.13439	107.76446
867	3.46400	127.63364	1023.00464	263.38477	-26.83965	1012.32263	392.57053	-39.06475	777.72052	433.87442	-63.56409	736.88068	430.12427	-91.01885	802.76886	413.58813	-106.43247	757.93304	410.73367	0.00000	0.00000	0.00000	-182.76018	515.00500	241.81865	-109.99889	447.18582	366.92618	-98.48136	400.69272	371.72574	-167.57227	425.90289	358.13422	-147.34737	384.20786	357.48557	-23.88536	140.76202	328.63867	0.00000	0.00000	0.00000	49.54600	101.58199	278.33359	-111.15205	62.21608	358.91107	-173.57224	68.30424	302.99686	-137.09703	42.51468	256.68707	121.95872	1029.11914	181.84302	-35.41750	1011.09351	61.07843	49.47273	749.67798	19.17508	41.44427	706.04761	23.28387	-11.25516	753.93671	20.91452	-11.85091	709.60962	24.58328	27.33838	483.23508	89.44019	25.79083	479.36218	201.67308	105.22978	397.21216	73.38083	104.62015	353.23792	73.84834	43.15528	390.49933	84.99010	52.65970	348.63641	82.14536	114.06692	89.72911	127.24126	112.46764	67.68765	216.51640	179.55901	47.68472	160.13046	-16.55248	30.95567	202.79826	-48.20924	47.49306	172.81038	-2.23351	30.12962	107.77139
868	3.46800	122.27863	1022.06519	263.95837	-32.03159	1011.96124	392.58310	-45.58939	777.92499	434.45474	-70.30763	737.29694	430.80804	-96.95229	803.11121	413.64807	-112.94269	758.43799	411.13364	0.00000	0.00000	0.00000	-189.99031	515.49231	242.49626	-118.53480	446.26550	367.24640	-108.23511	399.42459	372.13312	-176.75542	426.68411	358.90482	-157.63449	384.45624	358.33414	-41.72735	137.16905	329.17029	0.00000	0.00000	0.00000	30.33599	95.87392	278.57895	-131.03082	61.02891	359.69263	-193.56653	69.07088	304.07016	-157.50583	43.39467	255.62148	116.67284	1028.33875	182.56419	-40.28533	1010.22253	60.97286	45.48723	749.49133	19.27245	37.72776	705.85034	23.32633	-15.25947	753.40015	21.01767	-15.57974	709.10474	24.60249	25.19255	482.88776	89.48774	23.64189	478.93195	201.57889	103.44958	397.27502	73.21302	103.06473	353.27295	73.75903	41.75038	390.43918	84.84411	51.12783	348.45447	82.11758	113.89941	89.83292	127.22204	112.35714	67.77398	216.51537	180.37784	48.34454	160.11406	-15.67390	31.03152	202.75320	-48.23836	47.46474	172.76917	-2.24511	30.16269	107.72787
869	3.47200	116.95016	1021.10193	264.47580	-37.48260	1011.59772	392.65836	-52.07144	778.03870	435.01224	-77.05253	737.54871	431.49979	-102.81433	803.28888	413.69363	-119.42008	758.85614	411.51001	0.00000	0.00000	0.00000	-197.25266	515.84393	243.20837	-126.91408	445.27713	367.56076	-117.82435	398.18237	372.49710	-185.74609	427.33990	359.66449	-167.83786	384.53397	359.02325	-59.58882	133.71555	329.72440	0.00000	0.00000	0.00000	11.11618	90.36067	278.86349	-150.97079	59.97194	360.51370	-213.47372	69.88101	305.19586	-178.31087	43.33658	256.63651	111.44933	1027.59644	183.29773	-45.13550	1009.31824	60.87273	41.59783	749.31165	19.32069	34.11420	705.64014	23.33287	-19.26942	752.89307	21.15657	-19.34088	708.56171	24.66161	23.01258	482.54733	89.47689	21.45334	478.54285	201.49342	101.63707	397.29358	73.06988	101.63228	353.86264	71.44922	39.78000	389.94257	85.06071	49.54684	348.21835	82.12096	113.74086	89.91893	127.19991	112.30214	67.86694	216.45604	179.53659	47.75903	160.12006	-16.57103	31.00683	202.65594	-48.24311	47.57249	172.59357	-2.26835	30.18032	107.71587
870	3.47600	111.63210	1020.09662	265.04181	-43.16275	1011.18066	392.78537	-58.42075	778.08832	435.61887	-83.72335	737.74268	432.19678	-109.36227	803.19720	415.66849	-125.87283	759.20355	411.92334	0.00000	0.00000	0.00000	-204.47041	516.06470	243.89487	-135.14070	444.16119	367.91156	-127.37086	396.78021	372.92114	-194.58037	427.89761	360.52258	-177.77048	384.61115	359.90915	-77.38302	130.36061	330.44400	0.00000	0.00000	0.00000	-8.69915	84.80235	278.83640	-170.88033	59.18881	361.47897	-233.28514	70.86356	306.25668	-199.10735	43.34221	257.53162	106.21605	1026.86194	184.09160	-50.05148	1008.37854	60.80376	37.60241	749.06860	19.38643	30.37179	705.41425	23.36686	-23.16015	752.37311	21.20957	-23.12304	707.89142	24.74241	20.83138	482.14188	89.52788	19.20059	478.06589	201.34247	99.84207	397.28204	72.94526	100.11517	353.92700	71.41662	37.93994	389.68207	85.08497	48.02141	348.00305	82.12592	113.54874	90.00661	127.17377	112.22353	67.99656	216.42232	180.34770	48.40345	160.10399	-15.65635	30.81467	202.70908	-48.27958	47.34943	172.72688	-2.27448	30.22575	107.67005
871	3.48000	106.23156	1019.02539	265.65021	-48.93041	1010.68610	392.99930	-63.45543	778.47919	436.41696	-91.03355	737.53369	433.09442	-115.50387	803.35785	415.85721	-132.33604	759.41736	412.29691	0.00000	0.00000	0.00000	-211.57166	516.13287	244.63126	-143.34862	442.81747	368.22333	-136.76651	395.30057	373.32217	-203.22063	428.29309	361.40167	-187.70688	384.57645	360.74344	-95.91509	127.02540	330.84131	0.00000	0.00000	0.00000	-28.49882	79.84379	279.00998	-190.82726	58.51920	362.33505	-252.94606	71.81474	307.37460	-219.76910	43.55520	258.37711	100.90270	1026.10120	184.97479	-54.99493	1007.38257	60.76307	33.67779	748.83716	19.49215	26.65958	705.12805	23.42080	-27.21386	751.81946	21.26204	-26.99196	707.81067	23.63469	18.67769	481.78217	89.54260	16.87350	477.65988	201.21111	98.01836	397.33392	72.77888	98.66010	353.97592	71.38046	36.22691	389.35297	85.12838	46.38712	347.76843	82.14002	113.34982	90.10359	127.17187	110.14555	69.34004	216.62846	180.32809	48.43658	160.11617	-15.57497	30.83774	202.78598	-48.33257	47.30946	172.70306	-2.11383	29.97415	107.93366
872	3.48400	100.80357	1017.93213	266.30856	-54.75282	1010.10663	393.22879	-71.21770	777.81854	436.78598	-97.65639	737.52783	433.80518	-121.61864	803.38177	416.12088	-138.81523	759.51483	412.70248	0.00000	0.00000	0.00000	-218.60014	516.10559	245.32191	-151.47324	441.33981	368.61163	-146.22581	393.65912	373.76007	-211.74689	428.56387	362.33649	-197.47118	384.42001	361.59540	-113.77673	124.30315	331.67993	0.00000	0.00000	0.00000	-48.11040	75.18221	279.61703	-210.81758	57.82771	362.98770	-272.85504	73.11327	308.35825	-240.47534	43.88564	259.34866	95.55744	1025.38416	185.87865	-60.04733	1006.33795	60.80444	29.71168	748.62335	19.63851	22.97155	704.83173	23.48937	-31.17665	751.27405	21.30015	-30.80924	707.19714	23.92721	16.47634	481.40353	89.59072	14.50933	477.20956	201.05238	96.19557	397.29062	72.70471	97.11420	354.02814	71.37434	34.42894	389.12015	85.16843	44.85841	347.55746	82.15838	113.14384	90.18148	127.16171	110.10939	69.38666	216.66396	180.34174	48.51000	160.15088	-15.72224	30.73156	202.71140	-48.39928	47.25787	172.71019	-2.15848	29.96121	107.95841
873	3.48800	95.31364	1016.82739	267.08057	-60.61893	1009.44458	393.52423	-77.60904	777.52997	437.37933	-104.31616	737.36908	434.42349	-127.77901	803.26746	416.33673	-145.17148	759.44202	413.06827	0.00000	0.00000	0.00000	-225.58559	515.96436	246.06178	-159.42426	439.80054	369.05856	-155.53642	391.88245	374.28912	-220.18538	428.74506	363.24072	-207.14879	384.22733	362.47406	-132.50246	121.33780	332.44769	0.00000	0.00000	0.00000	-67.81994	70.75755	280.31802	-230.86749	57.37441	363.65756	-292.34872	74.26625	309.40646	-261.00287	44.36055	260.28595	90.19224	1024.65088	186.80743	-64.76514	1004.98761	60.76358	25.79399	748.40015	19.75437	19.23711	704.51410	23.58548	-35.12140	750.67798	21.36346	-34.47266	706.58557	23.98136	14.26386	480.99921	89.55453	12.21659	476.68036	200.92844	94.37627	397.32043	72.60857	95.61398	354.04202	71.36834	32.67202	388.81503	85.22176	43.27566	347.29266	82.18521	112.95782	90.25270	127.18749	109.96749	69.44151	216.66530	179.48511	47.95458	160.16510	-15.74421	30.71473	202.70589	-48.46197	47.20282	172.69980	-2.18308	29.97093	107.94188
874	3.49200	89.82048	1015.81952	267.90463	-66.38013	1008.60345	393.82755	-84.71848	776.90198	438.07111	-110.93664	737.07617	435.11029	-133.90860	803.02307	416.65656	-151.39938	759.06989	413.46780	0.00000	0.00000	0.00000	-232.55061	515.71857	246.76604	-167.41931	438.12961	369.47653	-164.77814	390.14987	374.71796	-228.50459	428.82339	364.22473	-216.71460	383.96741	363.38168	-150.88005	118.84571	333.37857	0.00000	0.00000	0.00000	-87.47302	66.67343	281.21786	-250.89690	57.36563	364.46445	-312.17502	76.00974	310.19553	-281.25458	45.26060	261.00812	84.84235	1023.98584	187.71736	-70.41171	1003.92853	61.07142	21.89979	748.17218	19.94940	15.62876	704.19568	23.71684	-39.06917	750.09735	21.46544	-38.15347	705.94867	24.07021	12.10880	480.59360	89.59444	10.09246	476.17975	200.88202	92.59962	397.27225	72.54373	94.10323	354.06201	71.38730	30.95544	388.55469	85.28020	41.70086	347.02448	82.21539	112.73958	90.33821	127.23104	109.91164	69.46725	216.69977	179.48036	48.02781	160.21254	-15.72121	30.73070	202.73935	-48.53133	47.09814	172.67863	-2.22145	29.95889	107.92914
